<svg version="1.1" xmlns="http://www.w3.org/2000/svg" width="222px" height="222px" viewBox="0 0 222 222"  preserveAspectRatio="xMinYMin meet"><rect width="100%" height="100%" fill="white" cx="0" cy="0"/><path d="M12,12l6,0 0,6 -6,0 0,-6z M18,12l6,0 0,6 -6,0 0,-6z M24,12l6,0 0,6 -6,0 0,-6z M30,12l6,0 0,6 -6,0 0,-6z M36,12l6,0 0,6 -6,0 0,-6z M42,12l6,0 0,6 -6,0 0,-6z M48,12l6,0 0,6 -6,0 0,-6z M72,12l6,0 0,6 -6,0 0,-6z M78,12l6,0 0,6 -6,0 0,-6z M84,12l6,0 0,6 -6,0 0,-6z M90,12l6,0 0,6 -6,0 0,-6z M108,12l6,0 0,6 -6,0 0,-6z M120,12l6,0 0,6 -6,0 0,-6z M132,12l6,0 0,6 -6,0 0,-6z M138,12l6,0 0,6 -6,0 0,-6z M144,12l6,0 0,6 -6,0 0,-6z M150,12l6,0 0,6 -6,0 0,-6z M156,12l6,0 0,6 -6,0 0,-6z M168,12l6,0 0,6 -6,0 0,-6z M174,12l6,0 0,6 -6,0 0,-6z M180,12l6,0 0,6 -6,0 0,-6z M186,12l6,0 0,6 -6,0 0,-6z M192,12l6,0 0,6 -6,0 0,-6z M198,12l6,0 0,6 -6,0 0,-6z M204,12l6,0 0,6 -6,0 0,-6z M12,18l6,0 0,6 -6,0 0,-6z M48,18l6,0 0,6 -6,0 0,-6z M60,18l6,0 0,6 -6,0 0,-6z M66,18l6,0 0,6 -6,0 0,-6z M72,18l6,0 0,6 -6,0 0,-6z M78,18l6,0 0,6 -6,0 0,-6z M84,18l6,0 0,6 -6,0 0,-6z M120,18l6,0 0,6 -6,0 0,-6z M126,18l6,0 0,6 -6,0 0,-6z M132,18l6,0 0,6 -6,0 0,-6z M150,18l6,0 0,6 -6,0 0,-6z M168,18l6,0 0,6 -6,0 0,-6z M204,18l6,0 0,6 -6,0 0,-6z M12,24l6,0 0,6 -6,0 0,-6z M24,24l6,0 0,6 -6,0 0,-6z M30,24l6,0 0,6 -6,0 0,-6z M36,24l6,0 0,6 -6,0 0,-6z M48,24l6,0 0,6 -6,0 0,-6z M66,24l6,0 0,6 -6,0 0,-6z M72,24l6,0 0,6 -6,0 0,-6z M78,24l6,0 0,6 -6,0 0,-6z M84,24l6,0 0,6 -6,0 0,-6z M90,24l6,0 0,6 -6,0 0,-6z M102,24l6,0 0,6 -6,0 0,-6z M120,24l6,0 0,6 -6,0 0,-6z M126,24l6,0 0,6 -6,0 0,-6z M132,24l6,0 0,6 -6,0 0,-6z M138,24l6,0 0,6 -6,0 0,-6z M168,24l6,0 0,6 -6,0 0,-6z M180,24l6,0 0,6 -6,0 0,-6z M186,24l6,0 0,6 -6,0 0,-6z M192,24l6,0 0,6 -6,0 0,-6z M204,24l6,0 0,6 -6,0 0,-6z M12,30l6,0 0,6 -6,0 0,-6z M24,30l6,0 0,6 -6,0 0,-6z M30,30l6,0 0,6 -6,0 0,-6z M36,30l6,0 0,6 -6,0 0,-6z M48,30l6,0 0,6 -6,0 0,-6z M66,30l6,0 0,6 -6,0 0,-6z M78,30l6,0 0,6 -6,0 0,-6z M108,30l6,0 0,6 -6,0 0,-6z M120,30l6,0 0,6 -6,0 0,-6z M132,30l6,0 0,6 -6,0 0,-6z M168,30l6,0 0,6 -6,0 0,-6z M180,30l6,0 0,6 -6,0 0,-6z M186,30l6,0 0,6 -6,0 0,-6z M192,30l6,0 0,6 -6,0 0,-6z M204,30l6,0 0,6 -6,0 0,-6z M12,36l6,0 0,6 -6,0 0,-6z M24,36l6,0 0,6 -6,0 0,-6z M30,36l6,0 0,6 -6,0 0,-6z M36,36l6,0 0,6 -6,0 0,-6z M48,36l6,0 0,6 -6,0 0,-6z M66,36l6,0 0,6 -6,0 0,-6z M72,36l6,0 0,6 -6,0 0,-6z M78,36l6,0 0,6 -6,0 0,-6z M84,36l6,0 0,6 -6,0 0,-6z M96,36l6,0 0,6 -6,0 0,-6z M102,36l6,0 0,6 -6,0 0,-6z M108,36l6,0 0,6 -6,0 0,-6z M114,36l6,0 0,6 -6,0 0,-6z M120,36l6,0 0,6 -6,0 0,-6z M126,36l6,0 0,6 -6,0 0,-6z M144,36l6,0 0,6 -6,0 0,-6z M168,36l6,0 0,6 -6,0 0,-6z M180,36l6,0 0,6 -6,0 0,-6z M186,36l6,0 0,6 -6,0 0,-6z M192,36l6,0 0,6 -6,0 0,-6z M204,36l6,0 0,6 -6,0 0,-6z M12,42l6,0 0,6 -6,0 0,-6z M48,42l6,0 0,6 -6,0 0,-6z M60,42l6,0 0,6 -6,0 0,-6z M66,42l6,0 0,6 -6,0 0,-6z M78,42l6,0 0,6 -6,0 0,-6z M84,42l6,0 0,6 -6,0 0,-6z M102,42l6,0 0,6 -6,0 0,-6z M108,42l6,0 0,6 -6,0 0,-6z M132,42l6,0 0,6 -6,0 0,-6z M138,42l6,0 0,6 -6,0 0,-6z M150,42l6,0 0,6 -6,0 0,-6z M156,42l6,0 0,6 -6,0 0,-6z M168,42l6,0 0,6 -6,0 0,-6z M204,42l6,0 0,6 -6,0 0,-6z M12,48l6,0 0,6 -6,0 0,-6z M18,48l6,0 0,6 -6,0 0,-6z M24,48l6,0 0,6 -6,0 0,-6z M30,48l6,0 0,6 -6,0 0,-6z M36,48l6,0 0,6 -6,0 0,-6z M42,48l6,0 0,6 -6,0 0,-6z M48,48l6,0 0,6 -6,0 0,-6z M60,48l6,0 0,6 -6,0 0,-6z M72,48l6,0 0,6 -6,0 0,-6z M84,48l6,0 0,6 -6,0 0,-6z M96,48l6,0 0,6 -6,0 0,-6z M108,48l6,0 0,6 -6,0 0,-6z M120,48l6,0 0,6 -6,0 0,-6z M132,48l6,0 0,6 -6,0 0,-6z M144,48l6,0 0,6 -6,0 0,-6z M156,48l6,0 0,6 -6,0 0,-6z M168,48l6,0 0,6 -6,0 0,-6z M174,48l6,0 0,6 -6,0 0,-6z M180,48l6,0 0,6 -6,0 0,-6z M186,48l6,0 0,6 -6,0 0,-6z M192,48l6,0 0,6 -6,0 0,-6z M198,48l6,0 0,6 -6,0 0,-6z M204,48l6,0 0,6 -6,0 0,-6z M60,54l6,0 0,6 -6,0 0,-6z M66,54l6,0 0,6 -6,0 0,-6z M72,54l6,0 0,6 -6,0 0,-6z M78,54l6,0 0,6 -6,0 0,-6z M90,54l6,0 0,6 -6,0 0,-6z M96,54l6,0 0,6 -6,0 0,-6z M126,54l6,0 0,6 -6,0 0,-6z M132,54l6,0 0,6 -6,0 0,-6z M138,54l6,0 0,6 -6,0 0,-6z M144,54l6,0 0,6 -6,0 0,-6z M156,54l6,0 0,6 -6,0 0,-6z M36,60l6,0 0,6 -6,0 0,-6z M42,60l6,0 0,6 -6,0 0,-6z M48,60l6,0 0,6 -6,0 0,-6z M54,60l6,0 0,6 -6,0 0,-6z M66,60l6,0 0,6 -6,0 0,-6z M72,60l6,0 0,6 -6,0 0,-6z M78,60l6,0 0,6 -6,0 0,-6z M84,60l6,0 0,6 -6,0 0,-6z M96,60l6,0 0,6 -6,0 0,-6z M102,60l6,0 0,6 -6,0 0,-6z M108,60l6,0 0,6 -6,0 0,-6z M120,60l6,0 0,6 -6,0 0,-6z M132,60l6,0 0,6 -6,0 0,-6z M138,60l6,0 0,6 -6,0 0,-6z M150,60l6,0 0,6 -6,0 0,-6z M168,60l6,0 0,6 -6,0 0,-6z M174,60l6,0 0,6 -6,0 0,-6z M198,60l6,0 0,6 -6,0 0,-6z M24,66l6,0 0,6 -6,0 0,-6z M54,66l6,0 0,6 -6,0 0,-6z M66,66l6,0 0,6 -6,0 0,-6z M102,66l6,0 0,6 -6,0 0,-6z M108,66l6,0 0,6 -6,0 0,-6z M114,66l6,0 0,6 -6,0 0,-6z M144,66l6,0 0,6 -6,0 0,-6z M150,66l6,0 0,6 -6,0 0,-6z M156,66l6,0 0,6 -6,0 0,-6z M174,66l6,0 0,6 -6,0 0,-6z M180,66l6,0 0,6 -6,0 0,-6z M12,72l6,0 0,6 -6,0 0,-6z M18,72l6,0 0,6 -6,0 0,-6z M24,72l6,0 0,6 -6,0 0,-6z M30,72l6,0 0,6 -6,0 0,-6z M36,72l6,0 0,6 -6,0 0,-6z M48,72l6,0 0,6 -6,0 0,-6z M54,72l6,0 0,6 -6,0 0,-6z M60,72l6,0 0,6 -6,0 0,-6z M66,72l6,0 0,6 -6,0 0,-6z M78,72l6,0 0,6 -6,0 0,-6z M84,72l6,0 0,6 -6,0 0,-6z M108,72l6,0 0,6 -6,0 0,-6z M126,72l6,0 0,6 -6,0 0,-6z M138,72l6,0 0,6 -6,0 0,-6z M144,72l6,0 0,6 -6,0 0,-6z M156,72l6,0 0,6 -6,0 0,-6z M162,72l6,0 0,6 -6,0 0,-6z M174,72l6,0 0,6 -6,0 0,-6z M186,72l6,0 0,6 -6,0 0,-6z M192,72l6,0 0,6 -6,0 0,-6z M198,72l6,0 0,6 -6,0 0,-6z M12,78l6,0 0,6 -6,0 0,-6z M42,78l6,0 0,6 -6,0 0,-6z M60,78l6,0 0,6 -6,0 0,-6z M72,78l6,0 0,6 -6,0 0,-6z M78,78l6,0 0,6 -6,0 0,-6z M102,78l6,0 0,6 -6,0 0,-6z M108,78l6,0 0,6 -6,0 0,-6z M114,78l6,0 0,6 -6,0 0,-6z M120,78l6,0 0,6 -6,0 0,-6z M126,78l6,0 0,6 -6,0 0,-6z M138,78l6,0 0,6 -6,0 0,-6z M168,78l6,0 0,6 -6,0 0,-6z M18,84l6,0 0,6 -6,0 0,-6z M30,84l6,0 0,6 -6,0 0,-6z M36,84l6,0 0,6 -6,0 0,-6z M42,84l6,0 0,6 -6,0 0,-6z M48,84l6,0 0,6 -6,0 0,-6z M54,84l6,0 0,6 -6,0 0,-6z M66,84l6,0 0,6 -6,0 0,-6z M72,84l6,0 0,6 -6,0 0,-6z M78,84l6,0 0,6 -6,0 0,-6z M84,84l6,0 0,6 -6,0 0,-6z M90,84l6,0 0,6 -6,0 0,-6z M96,84l6,0 0,6 -6,0 0,-6z M102,84l6,0 0,6 -6,0 0,-6z M114,84l6,0 0,6 -6,0 0,-6z M132,84l6,0 0,6 -6,0 0,-6z M156,84l6,0 0,6 -6,0 0,-6z M168,84l6,0 0,6 -6,0 0,-6z M192,84l6,0 0,6 -6,0 0,-6z M198,84l6,0 0,6 -6,0 0,-6z M204,84l6,0 0,6 -6,0 0,-6z M12,90l6,0 0,6 -6,0 0,-6z M30,90l6,0 0,6 -6,0 0,-6z M54,90l6,0 0,6 -6,0 0,-6z M60,90l6,0 0,6 -6,0 0,-6z M84,90l6,0 0,6 -6,0 0,-6z M90,90l6,0 0,6 -6,0 0,-6z M120,90l6,0 0,6 -6,0 0,-6z M126,90l6,0 0,6 -6,0 0,-6z M132,90l6,0 0,6 -6,0 0,-6z M144,90l6,0 0,6 -6,0 0,-6z M150,90l6,0 0,6 -6,0 0,-6z M156,90l6,0 0,6 -6,0 0,-6z M162,90l6,0 0,6 -6,0 0,-6z M168,90l6,0 0,6 -6,0 0,-6z M186,90l6,0 0,6 -6,0 0,-6z M192,90l6,0 0,6 -6,0 0,-6z M204,90l6,0 0,6 -6,0 0,-6z M18,96l6,0 0,6 -6,0 0,-6z M30,96l6,0 0,6 -6,0 0,-6z M36,96l6,0 0,6 -6,0 0,-6z M48,96l6,0 0,6 -6,0 0,-6z M84,96l6,0 0,6 -6,0 0,-6z M102,96l6,0 0,6 -6,0 0,-6z M132,96l6,0 0,6 -6,0 0,-6z M144,96l6,0 0,6 -6,0 0,-6z M162,96l6,0 0,6 -6,0 0,-6z M174,96l6,0 0,6 -6,0 0,-6z M180,96l6,0 0,6 -6,0 0,-6z M12,102l6,0 0,6 -6,0 0,-6z M24,102l6,0 0,6 -6,0 0,-6z M36,102l6,0 0,6 -6,0 0,-6z M42,102l6,0 0,6 -6,0 0,-6z M54,102l6,0 0,6 -6,0 0,-6z M60,102l6,0 0,6 -6,0 0,-6z M66,102l6,0 0,6 -6,0 0,-6z M78,102l6,0 0,6 -6,0 0,-6z M84,102l6,0 0,6 -6,0 0,-6z M102,102l6,0 0,6 -6,0 0,-6z M108,102l6,0 0,6 -6,0 0,-6z M120,102l6,0 0,6 -6,0 0,-6z M138,102l6,0 0,6 -6,0 0,-6z M168,102l6,0 0,6 -6,0 0,-6z M180,102l6,0 0,6 -6,0 0,-6z M186,102l6,0 0,6 -6,0 0,-6z M192,102l6,0 0,6 -6,0 0,-6z M198,102l6,0 0,6 -6,0 0,-6z M12,108l6,0 0,6 -6,0 0,-6z M18,108l6,0 0,6 -6,0 0,-6z M24,108l6,0 0,6 -6,0 0,-6z M42,108l6,0 0,6 -6,0 0,-6z M48,108l6,0 0,6 -6,0 0,-6z M72,108l6,0 0,6 -6,0 0,-6z M78,108l6,0 0,6 -6,0 0,-6z M90,108l6,0 0,6 -6,0 0,-6z M96,108l6,0 0,6 -6,0 0,-6z M102,108l6,0 0,6 -6,0 0,-6z M120,108l6,0 0,6 -6,0 0,-6z M126,108l6,0 0,6 -6,0 0,-6z M132,108l6,0 0,6 -6,0 0,-6z M138,108l6,0 0,6 -6,0 0,-6z M144,108l6,0 0,6 -6,0 0,-6z M150,108l6,0 0,6 -6,0 0,-6z M174,108l6,0 0,6 -6,0 0,-6z M192,108l6,0 0,6 -6,0 0,-6z M204,108l6,0 0,6 -6,0 0,-6z M12,114l6,0 0,6 -6,0 0,-6z M18,114l6,0 0,6 -6,0 0,-6z M24,114l6,0 0,6 -6,0 0,-6z M30,114l6,0 0,6 -6,0 0,-6z M42,114l6,0 0,6 -6,0 0,-6z M54,114l6,0 0,6 -6,0 0,-6z M72,114l6,0 0,6 -6,0 0,-6z M102,114l6,0 0,6 -6,0 0,-6z M108,114l6,0 0,6 -6,0 0,-6z M126,114l6,0 0,6 -6,0 0,-6z M162,114l6,0 0,6 -6,0 0,-6z M168,114l6,0 0,6 -6,0 0,-6z M174,114l6,0 0,6 -6,0 0,-6z M180,114l6,0 0,6 -6,0 0,-6z M186,114l6,0 0,6 -6,0 0,-6z M198,114l6,0 0,6 -6,0 0,-6z M18,120l6,0 0,6 -6,0 0,-6z M24,120l6,0 0,6 -6,0 0,-6z M42,120l6,0 0,6 -6,0 0,-6z M48,120l6,0 0,6 -6,0 0,-6z M54,120l6,0 0,6 -6,0 0,-6z M60,120l6,0 0,6 -6,0 0,-6z M66,120l6,0 0,6 -6,0 0,-6z M72,120l6,0 0,6 -6,0 0,-6z M84,120l6,0 0,6 -6,0 0,-6z M126,120l6,0 0,6 -6,0 0,-6z M132,120l6,0 0,6 -6,0 0,-6z M138,120l6,0 0,6 -6,0 0,-6z M144,120l6,0 0,6 -6,0 0,-6z M162,120l6,0 0,6 -6,0 0,-6z M168,120l6,0 0,6 -6,0 0,-6z M180,120l6,0 0,6 -6,0 0,-6z M192,120l6,0 0,6 -6,0 0,-6z M198,120l6,0 0,6 -6,0 0,-6z M12,126l6,0 0,6 -6,0 0,-6z M30,126l6,0 0,6 -6,0 0,-6z M42,126l6,0 0,6 -6,0 0,-6z M54,126l6,0 0,6 -6,0 0,-6z M60,126l6,0 0,6 -6,0 0,-6z M66,126l6,0 0,6 -6,0 0,-6z M72,126l6,0 0,6 -6,0 0,-6z M78,126l6,0 0,6 -6,0 0,-6z M90,126l6,0 0,6 -6,0 0,-6z M102,126l6,0 0,6 -6,0 0,-6z M114,126l6,0 0,6 -6,0 0,-6z M126,126l6,0 0,6 -6,0 0,-6z M144,126l6,0 0,6 -6,0 0,-6z M150,126l6,0 0,6 -6,0 0,-6z M168,126l6,0 0,6 -6,0 0,-6z M174,126l6,0 0,6 -6,0 0,-6z M180,126l6,0 0,6 -6,0 0,-6z M186,126l6,0 0,6 -6,0 0,-6z M192,126l6,0 0,6 -6,0 0,-6z M204,126l6,0 0,6 -6,0 0,-6z M30,132l6,0 0,6 -6,0 0,-6z M36,132l6,0 0,6 -6,0 0,-6z M42,132l6,0 0,6 -6,0 0,-6z M48,132l6,0 0,6 -6,0 0,-6z M60,132l6,0 0,6 -6,0 0,-6z M72,132l6,0 0,6 -6,0 0,-6z M78,132l6,0 0,6 -6,0 0,-6z M84,132l6,0 0,6 -6,0 0,-6z M102,132l6,0 0,6 -6,0 0,-6z M126,132l6,0 0,6 -6,0 0,-6z M132,132l6,0 0,6 -6,0 0,-6z M138,132l6,0 0,6 -6,0 0,-6z M144,132l6,0 0,6 -6,0 0,-6z M150,132l6,0 0,6 -6,0 0,-6z M186,132l6,0 0,6 -6,0 0,-6z M204,132l6,0 0,6 -6,0 0,-6z M12,138l6,0 0,6 -6,0 0,-6z M18,138l6,0 0,6 -6,0 0,-6z M24,138l6,0 0,6 -6,0 0,-6z M30,138l6,0 0,6 -6,0 0,-6z M42,138l6,0 0,6 -6,0 0,-6z M54,138l6,0 0,6 -6,0 0,-6z M60,138l6,0 0,6 -6,0 0,-6z M78,138l6,0 0,6 -6,0 0,-6z M84,138l6,0 0,6 -6,0 0,-6z M90,138l6,0 0,6 -6,0 0,-6z M114,138l6,0 0,6 -6,0 0,-6z M120,138l6,0 0,6 -6,0 0,-6z M126,138l6,0 0,6 -6,0 0,-6z M132,138l6,0 0,6 -6,0 0,-6z M156,138l6,0 0,6 -6,0 0,-6z M162,138l6,0 0,6 -6,0 0,-6z M168,138l6,0 0,6 -6,0 0,-6z M186,138l6,0 0,6 -6,0 0,-6z M192,138l6,0 0,6 -6,0 0,-6z M42,144l6,0 0,6 -6,0 0,-6z M48,144l6,0 0,6 -6,0 0,-6z M54,144l6,0 0,6 -6,0 0,-6z M60,144l6,0 0,6 -6,0 0,-6z M66,144l6,0 0,6 -6,0 0,-6z M72,144l6,0 0,6 -6,0 0,-6z M84,144l6,0 0,6 -6,0 0,-6z M96,144l6,0 0,6 -6,0 0,-6z M102,144l6,0 0,6 -6,0 0,-6z M114,144l6,0 0,6 -6,0 0,-6z M120,144l6,0 0,6 -6,0 0,-6z M150,144l6,0 0,6 -6,0 0,-6z M156,144l6,0 0,6 -6,0 0,-6z M162,144l6,0 0,6 -6,0 0,-6z M168,144l6,0 0,6 -6,0 0,-6z M174,144l6,0 0,6 -6,0 0,-6z M186,144l6,0 0,6 -6,0 0,-6z M24,150l6,0 0,6 -6,0 0,-6z M30,150l6,0 0,6 -6,0 0,-6z M36,150l6,0 0,6 -6,0 0,-6z M72,150l6,0 0,6 -6,0 0,-6z M96,150l6,0 0,6 -6,0 0,-6z M108,150l6,0 0,6 -6,0 0,-6z M126,150l6,0 0,6 -6,0 0,-6z M132,150l6,0 0,6 -6,0 0,-6z M150,150l6,0 0,6 -6,0 0,-6z M168,150l6,0 0,6 -6,0 0,-6z M186,150l6,0 0,6 -6,0 0,-6z M192,150l6,0 0,6 -6,0 0,-6z M198,150l6,0 0,6 -6,0 0,-6z M12,156l6,0 0,6 -6,0 0,-6z M18,156l6,0 0,6 -6,0 0,-6z M24,156l6,0 0,6 -6,0 0,-6z M30,156l6,0 0,6 -6,0 0,-6z M36,156l6,0 0,6 -6,0 0,-6z M48,156l6,0 0,6 -6,0 0,-6z M54,156l6,0 0,6 -6,0 0,-6z M60,156l6,0 0,6 -6,0 0,-6z M78,156l6,0 0,6 -6,0 0,-6z M84,156l6,0 0,6 -6,0 0,-6z M90,156l6,0 0,6 -6,0 0,-6z M156,156l6,0 0,6 -6,0 0,-6z M162,156l6,0 0,6 -6,0 0,-6z M168,156l6,0 0,6 -6,0 0,-6z M174,156l6,0 0,6 -6,0 0,-6z M180,156l6,0 0,6 -6,0 0,-6z M186,156l6,0 0,6 -6,0 0,-6z M204,156l6,0 0,6 -6,0 0,-6z M60,162l6,0 0,6 -6,0 0,-6z M72,162l6,0 0,6 -6,0 0,-6z M102,162l6,0 0,6 -6,0 0,-6z M108,162l6,0 0,6 -6,0 0,-6z M114,162l6,0 0,6 -6,0 0,-6z M126,162l6,0 0,6 -6,0 0,-6z M132,162l6,0 0,6 -6,0 0,-6z M138,162l6,0 0,6 -6,0 0,-6z M150,162l6,0 0,6 -6,0 0,-6z M156,162l6,0 0,6 -6,0 0,-6z M180,162l6,0 0,6 -6,0 0,-6z M186,162l6,0 0,6 -6,0 0,-6z M192,162l6,0 0,6 -6,0 0,-6z M198,162l6,0 0,6 -6,0 0,-6z M12,168l6,0 0,6 -6,0 0,-6z M18,168l6,0 0,6 -6,0 0,-6z M24,168l6,0 0,6 -6,0 0,-6z M30,168l6,0 0,6 -6,0 0,-6z M36,168l6,0 0,6 -6,0 0,-6z M42,168l6,0 0,6 -6,0 0,-6z M48,168l6,0 0,6 -6,0 0,-6z M60,168l6,0 0,6 -6,0 0,-6z M66,168l6,0 0,6 -6,0 0,-6z M72,168l6,0 0,6 -6,0 0,-6z M78,168l6,0 0,6 -6,0 0,-6z M84,168l6,0 0,6 -6,0 0,-6z M120,168l6,0 0,6 -6,0 0,-6z M150,168l6,0 0,6 -6,0 0,-6z M156,168l6,0 0,6 -6,0 0,-6z M168,168l6,0 0,6 -6,0 0,-6z M180,168l6,0 0,6 -6,0 0,-6z M186,168l6,0 0,6 -6,0 0,-6z M198,168l6,0 0,6 -6,0 0,-6z M204,168l6,0 0,6 -6,0 0,-6z M12,174l6,0 0,6 -6,0 0,-6z M48,174l6,0 0,6 -6,0 0,-6z M60,174l6,0 0,6 -6,0 0,-6z M78,174l6,0 0,6 -6,0 0,-6z M84,174l6,0 0,6 -6,0 0,-6z M90,174l6,0 0,6 -6,0 0,-6z M96,174l6,0 0,6 -6,0 0,-6z M108,174l6,0 0,6 -6,0 0,-6z M120,174l6,0 0,6 -6,0 0,-6z M132,174l6,0 0,6 -6,0 0,-6z M144,174l6,0 0,6 -6,0 0,-6z M150,174l6,0 0,6 -6,0 0,-6z M156,174l6,0 0,6 -6,0 0,-6z M180,174l6,0 0,6 -6,0 0,-6z M186,174l6,0 0,6 -6,0 0,-6z M204,174l6,0 0,6 -6,0 0,-6z M12,180l6,0 0,6 -6,0 0,-6z M24,180l6,0 0,6 -6,0 0,-6z M30,180l6,0 0,6 -6,0 0,-6z M36,180l6,0 0,6 -6,0 0,-6z M48,180l6,0 0,6 -6,0 0,-6z M60,180l6,0 0,6 -6,0 0,-6z M72,180l6,0 0,6 -6,0 0,-6z M96,180l6,0 0,6 -6,0 0,-6z M114,180l6,0 0,6 -6,0 0,-6z M126,180l6,0 0,6 -6,0 0,-6z M132,180l6,0 0,6 -6,0 0,-6z M144,180l6,0 0,6 -6,0 0,-6z M156,180l6,0 0,6 -6,0 0,-6z M162,180l6,0 0,6 -6,0 0,-6z M168,180l6,0 0,6 -6,0 0,-6z M174,180l6,0 0,6 -6,0 0,-6z M180,180l6,0 0,6 -6,0 0,-6z M192,180l6,0 0,6 -6,0 0,-6z M198,180l6,0 0,6 -6,0 0,-6z M12,186l6,0 0,6 -6,0 0,-6z M24,186l6,0 0,6 -6,0 0,-6z M30,186l6,0 0,6 -6,0 0,-6z M36,186l6,0 0,6 -6,0 0,-6z M48,186l6,0 0,6 -6,0 0,-6z M72,186l6,0 0,6 -6,0 0,-6z M78,186l6,0 0,6 -6,0 0,-6z M90,186l6,0 0,6 -6,0 0,-6z M102,186l6,0 0,6 -6,0 0,-6z M108,186l6,0 0,6 -6,0 0,-6z M138,186l6,0 0,6 -6,0 0,-6z M150,186l6,0 0,6 -6,0 0,-6z M156,186l6,0 0,6 -6,0 0,-6z M168,186l6,0 0,6 -6,0 0,-6z M192,186l6,0 0,6 -6,0 0,-6z M204,186l6,0 0,6 -6,0 0,-6z M12,192l6,0 0,6 -6,0 0,-6z M24,192l6,0 0,6 -6,0 0,-6z M30,192l6,0 0,6 -6,0 0,-6z M36,192l6,0 0,6 -6,0 0,-6z M48,192l6,0 0,6 -6,0 0,-6z M66,192l6,0 0,6 -6,0 0,-6z M72,192l6,0 0,6 -6,0 0,-6z M90,192l6,0 0,6 -6,0 0,-6z M120,192l6,0 0,6 -6,0 0,-6z M144,192l6,0 0,6 -6,0 0,-6z M174,192l6,0 0,6 -6,0 0,-6z M186,192l6,0 0,6 -6,0 0,-6z M12,198l6,0 0,6 -6,0 0,-6z M48,198l6,0 0,6 -6,0 0,-6z M72,198l6,0 0,6 -6,0 0,-6z M102,198l6,0 0,6 -6,0 0,-6z M108,198l6,0 0,6 -6,0 0,-6z M120,198l6,0 0,6 -6,0 0,-6z M126,198l6,0 0,6 -6,0 0,-6z M132,198l6,0 0,6 -6,0 0,-6z M138,198l6,0 0,6 -6,0 0,-6z M144,198l6,0 0,6 -6,0 0,-6z M150,198l6,0 0,6 -6,0 0,-6z M156,198l6,0 0,6 -6,0 0,-6z M162,198l6,0 0,6 -6,0 0,-6z M174,198l6,0 0,6 -6,0 0,-6z M180,198l6,0 0,6 -6,0 0,-6z M204,198l6,0 0,6 -6,0 0,-6z M12,204l6,0 0,6 -6,0 0,-6z M18,204l6,0 0,6 -6,0 0,-6z M24,204l6,0 0,6 -6,0 0,-6z M30,204l6,0 0,6 -6,0 0,-6z M36,204l6,0 0,6 -6,0 0,-6z M42,204l6,0 0,6 -6,0 0,-6z M48,204l6,0 0,6 -6,0 0,-6z M66,204l6,0 0,6 -6,0 0,-6z M72,204l6,0 0,6 -6,0 0,-6z M90,204l6,0 0,6 -6,0 0,-6z M96,204l6,0 0,6 -6,0 0,-6z M108,204l6,0 0,6 -6,0 0,-6z M126,204l6,0 0,6 -6,0 0,-6z M132,204l6,0 0,6 -6,0 0,-6z M138,204l6,0 0,6 -6,0 0,-6z M150,204l6,0 0,6 -6,0 0,-6z M162,204l6,0 0,6 -6,0 0,-6z M198,204l6,0 0,6 -6,0 0,-6z M204,204l6,0 0,6 -6,0 0,-6z " stroke="transparent" fill="black"/></svg>